<svg xmlns="http://www.w3.org/2000/svg" data-name="Layer 1" viewBox="0 0 64 64" id="graduated"><path fill="#bc9833" d="m48.226 6.252-1.318.692 1.907 1.269-.589-1.961z"></path><path fill="#f5d51e" d="M52.99 33.67c-.493-1.13-1.683-3.966-2.16-5.06a1.004 1.004 0 0 0-.92-.61h-2a.993.993 0 0 0-.92.61l-.76 1.77-1.4 3.25c-1.345 3.906 3.255 4.93 6.12 4.13a2.995 2.995 0 0 0 2.04-4.09Z"></path><path fill="#ffc490" d="M36.889 34v5.41l-5 5-5-5V34h10z"></path><path fill="#565468" d="m32.017 2.052-21.333 7.11a1 1 0 0 0 0 1.898l20.667 6.888a1 1 0 0 0 .633 0l21.332-7.11a1 1 0 0 0 0-1.898L32.649 2.052a1 1 0 0 0-.632 0Z"></path><path d="M36.89 34v3.16a14.175 14.175 0 0 1-10 0V34Z" opacity=".1"></path><path fill="#ffc490" d="M30.89 36a10.132 10.132 0 0 1-10-11.1c-5.805-1.258-5.007-9.805 1-9.9h20a5.005 5.005 0 0 1 1 9.9A10.132 10.132 0 0 1 32.888 36Z"></path><rect width="24" height="11" x="19.889" y="8" opacity=".1" rx="1"></rect><rect width="24" height="11" x="19.889" y="12" opacity=".1" rx="1"></rect><rect width="24" height="11" x="19.889" y="10" fill="#565468" rx="1"></rect><path fill="#f5d51e" d="M48.89 26a1 1 0 0 1-1-1V7a1 1 0 0 1 2 0v18a1 1 0 0 1-1 1Z"></path><path d="M50.83 28.61a1.004 1.004 0 0 0-.92-.61h-2a.993.993 0 0 0-.92.61l-.76 1.77a3.016 3.016 0 0 0 5.34-.04Z" opacity=".1"></path><path fill="#f5d51e" d="M48.89 30a3 3 0 0 1 0-6 3 3 0 0 1 0 6Z"></path><path fill="#f2d1d4" d="M36.89 45h-10v-6a11.042 11.042 0 0 0 10 0Z"></path><path fill="#565468" d="M25.89 62V50.197a23.142 23.142 0 0 0 12 0V62zm-4-13.53V62h-8a1 1 0 0 1-1-1V51a13.004 13.004 0 0 1 3.36-8.72 13.268 13.268 0 0 0 5.64 6.19zm29 2.53v10a1 1 0 0 1-1 1h-8V48.47a13.254 13.254 0 0 0 5.63-6.17 12.785 12.785 0 0 1 3.37 8.7z"></path><path fill="#f2d1d4" d="M35.89 62V50.65a20.941 20.941 0 0 0 8-3.423V62zm-16 0V47.227a20.941 20.941 0 0 0 8 3.422V62z"></path><path d="M49.96 46.17c-7.525 11.818-28.628 11.782-36.14.01a12.949 12.949 0 0 1 8.41-7.65 3.06 3.06 0 0 1 .68 1.2c.47 1.82 3.84 4.27 8.98 4.27s8.51-2.45 8.96-4.22a3.672 3.672 0 0 1 .7-1.25 12.997 12.997 0 0 1 8.41 7.64Z" opacity=".1"></path><path fill="#f5d51e" d="M48.6 43.64c-.782-1.15-4.79-5.808-5.81-3.36-.72 2.81-4.99 5.72-10.9 5.72s-10.18-2.91-10.9-5.72c-.978-2.243-4.093 1.466-4.74 2-.47.665-1.507 1.351-1.05 2.28 5.362 9.282 19.516 10.688 28.22 5.32a14.396 14.396 0 0 0 5.16-5.32.997.997 0 0 0 .02-.92Z"></path><path fill="#f04c57" d="M44.92 40.04c-2.125 10.555-23.945 10.545-26.06 0A13.828 13.828 0 0 1 26.89 38l5 6 5-6a13.825 13.825 0 0 1 8.03 2.04Z"></path></svg>