<svg xmlns="http://www.w3.org/2000/svg" enable-background="new 0 0 64 64" viewBox="0 0 64 64" id="school"><polygon fill="#2e7cbc" points="23.875 29.768 11.146 29.768 6.39 35.503 23.875 35.503"></polygon><path fill="#404958" d="M57.6087837,53.6133614V36.6866951H40.1234665v16.9266663H38.151844V26.1322899l1.207962,0.7503815h4.7438698
		l-11.577179-7.1765423v-9.2051458h0.7536545v5.1779661c2.4594269-0.4071445,4.9223251,2.2340069,7.3782845,0.5315037v-5.8877287
		c-2.7083359,1.8772974-5.4201393-1.5242443-8.1319389-0.3062735V8.8591175c0-0.2960701-0.2421684-0.5417051-0.5417042-0.5417051
		c-0.2993431,0-0.5417061,0.245635-0.5417061,0.5417051v10.8672256l-11.5467625,7.1563282h4.7438717l1.2077694-0.7469139v27.4776039
		h-1.9714336V36.6866951H6.3912206v16.9266663H3.5887504v2.0692253h56.8225021v-2.0692253H57.6087837z M11.2833195,51.3524055
		H8.5343657v-2.7487602h2.7489538V51.3524055z M11.2833195,46.5244102H8.5343657V43.77565h2.7489538V46.5244102z
		 M11.2833195,41.6964188H8.5343657v-2.748764h2.7489538V41.6964188z M16.5082569,51.3524055h-2.7487602v-2.7487602h2.7487602
		V51.3524055z M16.5082569,46.5244102h-2.7487602V43.77565h2.7487602V46.5244102z M16.5082569,41.6964188h-2.7487602v-2.748764
		h2.7487602V41.6964188z M21.7299232,51.3524055h-2.7487621v-2.7487602h2.7487621V51.3524055z M21.7299232,46.5244102h-2.7487621
		V43.77565h2.7487621V46.5244102z M21.7299232,41.6964188h-2.7487621v-2.748764h2.7487621V41.6964188z M30.962019,51.4095802
		h-2.7487602V48.66082h2.7487602V51.4095802z M30.962019,46.1881065h-2.7487602v-2.748951h2.7487602V46.1881065z
		 M30.962019,40.9662514h-2.7487602v-2.748764h2.7487602V40.9662514z M35.7867432,51.4095802h-2.745491V48.66082h2.745491
		V51.4095802z M35.7867432,46.1881065h-2.745491v-2.748951h2.745491V46.1881065z M35.7867432,40.9662514h-2.745491v-2.748764
		h2.745491V40.9662514z M45.0188408,51.3524055h-2.748764v-2.7487602h2.748764V51.3524055z M45.0188408,46.5244102h-2.748764
		V43.77565h2.748764V46.5244102z M45.0188408,41.6964188h-2.748764v-2.748764h2.748764V41.6964188z M50.2405052,51.3524055
		H47.491745v-2.7487602h2.7487602V51.3524055z M50.2405052,46.5244102H47.491745V43.77565h2.7487602V46.5244102z
		 M50.2405052,41.6964188H47.491745v-2.748764h2.7487602V41.6964188z M55.4621696,51.3524055h-2.7452965v-2.7487602h2.7452965
		V51.3524055z M55.4621696,46.5244102h-2.7452965V43.77565h2.7452965V46.5244102z M55.4621696,41.6964188h-2.7452965v-2.748764
		h2.7452965V41.6964188z"></path><polygon fill="#2e7cbc" points="40.124 35.503 57.609 35.503 52.853 29.768 40.124 29.768"></polygon></svg>