<svg xmlns="http://www.w3.org/2000/svg" width="26" height="26" id="media"><g transform="translate(0 -1026.362)"><circle cx="13" cy="1039.362" r="13" fill="#ef4c45" fill-rule="evenodd"></circle><path fill="#fff" d="M1 1v10h6.5v2.547l-1.8 1.351-.4.3.6.8.4-.3 1.2-.901V16h1V14.797l1.2.9.4.301.6-.8-.4-.3-1.8-1.351V11H15V1H1Zm1 1h12v8H2V2zm5.016 1.611V8.39L10.949 6 7.016 3.611Zm1 1.778 1.007.613-1.007.611V5.39z" color="#000" font-family="sans-serif" font-weight="400" overflow="visible" transform="translate(5 1031.362)" style="line-height:normal;text-indent:0;text-align:start;text-decoration-line:none;text-decoration-style:solid;text-decoration-color:#000;text-transform:none;block-progression:tb;isolation:auto;mix-blend-mode:normal"></path></g></svg>