<svg xmlns="http://www.w3.org/2000/svg" data-name="Layer 1" viewBox="0 0 48 48" id="school"><path fill="#2a4251" d="M45 22.57V44a1 1 0 0 1-1 1H4a1 1 0 0 1-1-1V22.43a.959.959 0 0 1 .19-.58l6-8.43A1 1 0 0 1 10 13h28a1 1 0 0 1 .82.43l6 8.56a1 1 0 0 1 .18.58Z"></path><path fill="#2a4251" d="m45 22.57-42-.14a.959.959 0 0 1 .19-.58l6-8.43A1 1 0 0 1 10 13h28a1 1 0 0 1 .82.43l6 8.56a1 1 0 0 1 .18.58Z"></path><rect width="11" height="8" x="23" y="3" fill="#ffd164" rx="1"></rect><path fill="#54c0eb" d="M36 23v22H12V23a1.022 1.022 0 0 1 .37-.78l11.14-9a1.009 1.009 0 0 1 1.27.01l10.86 9A1 1 0 0 1 36 23Z"></path><path fill="#f2f2f2" d="M30 34H18a1 1 0 0 0-1 1v10h14V35a1 1 0 0 0-1-1zm-6-6a4 4 0 1 1 4-4 4 4 0 0 1-4 4zm0-6a2 2 0 1 0 2 2 2 2 0 0 0-2-2zm-.21 25h.4a1.01 1.01 0 0 1-.4 0z"></path><rect width="2" height="13" x="23" y="3" fill="#54c0eb" rx="1"></rect><path fill="#232323" d="M30.046 45.153H17.954a1 1 0 0 1-1-1V34.061a1 1 0 0 1 1-1h12.092a1 1 0 0 1 1 1v10.092a1 1 0 0 1-1 1zm-11.092-2h10.092v-8.092H18.954zM24 28.023A4.023 4.023 0 1 1 28.023 24 4.028 4.028 0 0 1 24 28.023zm0-6.046A2.023 2.023 0 1 0 26.023 24 2.026 2.026 0 0 0 24 21.977z"></path><path fill="#232323" d="M24 33.061a1 1 0 0 1 1 1v10.108a1 1 0 0 1-1 1 1 1 0 0 1-1-1V34.061a1 1 0 0 1 1-1zm9.069-22.168H24a1 1 0 0 1-1-1V3.847a1 1 0 0 1 1-1h9.069a1 1 0 0 1 1 1v6.046a1 1 0 0 1-1 1zm-8.069-2h7.069V4.847H25z"></path><path fill="#232323" d="M35.084 45.153H12.916a1 1 0 0 1-1-1V22.992a1 1 0 0 1 .372-.778l11.223-9.068a1 1 0 0 1 1.266.008l10.945 9.068a1 1 0 0 1 .362.77v21.161a1 1 0 0 1-1 1Zm-21.168-2h20.168V23.462l-9.953-8.246-10.215 8.254Z"></path><path fill="#232323" d="M44.153 45.153H3.847a1 1 0 0 1-1-1v-21.73a1 1 0 0 1 .185-.58l6.046-8.5a1 1 0 0 1 .815-.42h28.214a1 1 0 0 1 .819.426l6.046 8.63a1 1 0 0 1 .181.574v21.6a1 1 0 0 1-1 1Zm-39.306-2h38.306V22.87l-5.567-7.946H10.409l-5.562 7.818Z"></path><path fill="#232323" d="M24 14.924a1 1 0 0 1-1-1V3.847a1 1 0 0 1 2 0v10.077a1 1 0 0 1-1 1zm-11.084 9.068H3.847a1 1 0 0 1 0-2h9.069a1 1 0 0 1 0 2zm31.237 0h-9.069a1 1 0 0 1 0-2h9.069a1 1 0 0 1 0 2z"></path></svg>