<svg xmlns="http://www.w3.org/2000/svg" enable-background="new 0 0 512 512" viewBox="0 0 512 512" id="score"><path fill="#8bdec5" d="M42.655 348.926H316.47c-6.812-5.004-12.988-10.826-18.374-17.326H146.795c-12.412 0-22.509-10.098-22.509-22.51V91.35H63.872c-17.213 0-31.216 14.003-31.216 31.216v236.359C32.655 353.403 37.132 348.926 42.655 348.926zM440.203 358.926v-12.094c-1.566 1.233-3.172 2.417-4.809 3.559C438.274 352.146 440.203 355.307 440.203 358.926zM353.352 166.728c7.58-1.796 15.482-2.751 23.604-2.751 23.851 0 45.823 8.198 63.248 21.924v-63.335c0-17.213-14.004-31.216-31.217-31.216h-55.635V166.728z"></path><path fill="#726b93" d="M184.487,411.855v65.858h-31.942c-5.523,0-10,4.478-10,10s4.477,10,10,10h167.77c5.522,0,10-4.478,10-10
		s-4.478-10-10-10h-31.942v-65.858H184.487z"></path><path fill="#988fc4" d="M435.394,350.391c-16.583,11.569-36.731,18.365-58.439,18.365c-22.609,0-43.526-7.372-60.485-19.83H42.655
		c-5.523,0-10,4.478-10,10v21.713c0,17.213,14.003,31.217,31.216,31.217h120.615h103.885h120.614
		c17.213,0,31.217-14.004,31.217-31.217v-21.713C440.203,355.307,438.274,352.146,435.394,350.391z"></path><path fill="#ebe287" d="M288.242 91.213h25.84c5.522 0 10 4.477 10 10v77.503c8.956-5.422 18.805-9.509 29.27-11.987V91.35v-6.735c0-12.412-10.098-22.509-22.51-22.509h-43.124c.332 1.2.524 2.458.524 3.763V91.213zM124.286 309.09c0 12.412 10.098 22.51 22.509 22.51h151.301c-7.15-8.629-12.909-18.447-16.942-29.107H163.555c-5.523 0-10-4.478-10-10V101.213c0-5.523 4.477-10 10-10h21.062V65.868c0-1.304.192-2.562.524-3.763h-38.346c-12.412 0-22.509 10.098-22.509 22.509v6.735V309.09z"></path><path fill="#a3a8c4" d="M184.616,91.213v16.237c0,7.807,6.362,14.158,14.181,14.158h75.264c7.819,0,14.181-6.352,14.181-14.158V91.213
		V65.868c0-1.304-0.192-2.562-0.524-3.763c-1.656-5.983-7.144-10.396-13.656-10.396h-7.464c0.754-3.401,0.936-6.943,0.501-10.476
		c-1.717-13.962-13.155-25.215-27.198-26.758c-8.797-0.963-17.595,1.842-24.137,7.705c-6.508,5.833-10.241,14.178-10.241,22.896
		c0,2.247,0.246,4.47,0.725,6.633h-7.45c-6.513,0-12,4.412-13.657,10.396c-0.332,1.2-0.524,2.458-0.524,3.763V91.213z"></path><path fill="#de8bae" d="M186.02 160.224l11.13 11.068c1.95 1.939 4.501 2.909 7.051 2.909 2.551 0 5.101-.97 7.052-2.91l19.561-19.454c3.916-3.895 3.933-10.226.039-14.142-3.894-3.916-10.226-3.934-14.142-.039l-12.51 12.441-4.079-4.056c-3.917-3.895-10.248-3.877-14.142.04C182.085 149.998 182.104 156.329 186.02 160.224zM247.875 164.475h36.691c5.522 0 10-4.477 10-10s-4.478-10-10-10h-36.691c-5.523 0-10 4.477-10 10S242.352 164.475 247.875 164.475zM197.15 213.67c1.95 1.939 4.501 2.909 7.051 2.909 2.551 0 5.101-.97 7.052-2.91l19.561-19.454c3.916-3.895 3.933-10.226.039-14.142-3.894-3.916-10.226-3.934-14.142-.039l-12.51 12.441-4.079-4.056c-3.917-3.895-10.248-3.876-14.142.04-3.895 3.916-3.876 10.248.04 14.142L197.15 213.67zM247.875 206.853h36.691c5.522 0 10-4.477 10-10s-4.478-10-10-10h-36.691c-5.523 0-10 4.477-10 10S242.352 206.853 247.875 206.853zM186.02 244.979l11.13 11.068c1.95 1.939 4.501 2.909 7.051 2.909 2.551 0 5.101-.97 7.052-2.91l19.561-19.454c3.916-3.895 3.933-10.226.039-14.142-3.894-3.916-10.226-3.934-14.142-.039l-12.51 12.441-4.079-4.056c-3.917-3.895-10.248-3.877-14.142.04C182.085 234.753 182.104 241.085 186.02 244.979zM247.875 249.23h28.133c1.172-6.926 3.038-13.618 5.531-20h-33.664c-5.523 0-10 4.477-10 10S242.352 249.23 247.875 249.23z"></path><polygon fill="#f5f5fc" points="353.287 259.554 348.16 271.413 358.414 271.413"></polygon><path fill="#f5f5fc" d="M479.345,266.366c0-32.606-15.321-61.701-39.142-80.465c-17.425-13.726-39.397-21.924-63.248-21.924
		c-8.121,0-16.023,0.955-23.604,2.751c-10.465,2.479-20.314,6.565-29.27,11.987v-77.503c0-5.523-4.478-10-10-10h-25.84v16.237
		c0,7.807-6.361,14.158-14.181,14.158h-75.264c-7.819,0-14.181-6.352-14.181-14.158V91.213h-21.062c-5.523,0-10,4.477-10,10v191.279
		c0,5.522,4.477,10,10,10h117.599c4.033,10.66,9.792,20.479,16.942,29.107c5.386,6.5,11.562,12.322,18.374,17.326
		c16.959,12.458,37.876,19.83,60.485,19.83c21.708,0,41.856-6.796,58.439-18.365c1.637-1.142,3.243-2.326,4.809-3.559
		C464.024,328.067,479.345,298.973,479.345,266.366z M185.98,230.837c3.894-3.917,10.226-3.935,14.142-0.04l4.079,4.056
		l12.51-12.441c3.917-3.895,10.248-3.877,14.142,0.039c3.895,3.916,3.877,10.248-0.039,14.142l-19.561,19.454
		c-1.951,1.94-4.501,2.91-7.052,2.91c-2.55,0-5.101-0.97-7.051-2.909l-11.13-11.068C182.104,241.085,182.085,234.753,185.98,230.837
		z M185.98,188.459c3.894-3.916,10.226-3.935,14.142-0.04l4.079,4.056l12.51-12.441c3.917-3.895,10.248-3.877,14.142,0.039
		c3.895,3.916,3.877,10.248-0.039,14.142l-19.561,19.454c-1.951,1.94-4.501,2.91-7.052,2.91c-2.55,0-5.101-0.97-7.051-2.909
		l-11.13-11.068C182.104,198.707,182.085,192.375,185.98,188.459z M339.513,291.413l-4.727,10.934
		c-2.191,5.069-8.078,7.403-13.147,5.21c-5.069-2.191-7.401-8.078-5.21-13.147l7.27-16.815c0.024-0.058,0.049-0.115,0.075-0.173
		l20.335-47.036c1.583-3.661,5.19-6.032,9.179-6.032c3.989,0,7.596,2.371,9.179,6.032l20.334,47.035
		c0.025,0.058,0.051,0.116,0.075,0.174l7.269,16.815c2.191,5.069-0.141,10.955-5.211,13.146c-1.292,0.56-2.639,0.824-3.963,0.824
		c-3.868,0-7.551-2.258-9.184-6.035l-4.726-10.933H339.513z M423.641,308.378c-5.522,0-10-4.478-10-10V289.9h-8.479
		c-5.522,0-10-4.478-10-10s4.478-10,10-10h8.479v-8.479c0-5.523,4.478-10,10-10s10,4.477,10,10v8.479h8.478c5.522,0,10,4.478,10,10
		s-4.478,10-10,10h-8.478v8.478C433.641,303.9,429.163,308.378,423.641,308.378z M247.875,144.475h36.691c5.522,0,10,4.477,10,10
		s-4.478,10-10,10h-36.691c-5.523,0-10-4.477-10-10S242.352,144.475,247.875,144.475z M247.875,186.853h36.691
		c5.522,0,10,4.477,10,10s-4.478,10-10,10h-36.691c-5.523,0-10-4.477-10-10S242.352,186.853,247.875,186.853z M247.875,229.23
		h33.664c-2.493,6.382-4.359,13.074-5.531,20h-28.133c-5.523,0-10-4.477-10-10S242.352,229.23,247.875,229.23z M200.122,146.042
		l4.079,4.056l12.51-12.441c3.917-3.895,10.248-3.877,14.142,0.039c3.895,3.916,3.877,10.248-0.039,14.142l-19.561,19.454
		c-1.951,1.94-4.501,2.91-7.052,2.91c-2.55,0-5.101-0.97-7.051-2.909l-11.13-11.068c-3.916-3.895-3.934-10.226-0.04-14.142
		C189.874,142.165,196.206,142.147,200.122,146.042z"></path><path fill="#de8bae" d="M371.787 302.346c1.633 3.777 5.315 6.035 9.184 6.035 1.324 0 2.671-.265 3.963-.824 5.07-2.191 7.402-8.077 5.211-13.146l-7.269-16.815c-.024-.059-.05-.116-.075-.174l-20.334-47.035c-1.583-3.661-5.189-6.032-9.179-6.032-3.988 0-7.596 2.371-9.179 6.032l-20.335 47.036c-.025.057-.051.115-.075.173l-7.27 16.815c-2.191 5.069.141 10.956 5.21 13.147 5.069 2.193 10.956-.141 13.147-5.21l4.727-10.934h27.548L371.787 302.346zM348.16 271.413l5.127-11.859 5.127 11.859H348.16zM442.118 289.9c5.522 0 10-4.478 10-10s-4.478-10-10-10h-8.478v-8.479c0-5.523-4.478-10-10-10s-10 4.477-10 10v8.479h-8.479c-5.522 0-10 4.478-10 10s4.478 10 10 10h8.479v8.478c0 5.522 4.478 10 10 10s10-4.478 10-10V289.9H442.118z"></path></svg>