<svg xmlns="http://www.w3.org/2000/svg" enable-background="new 0 0 512 512" viewBox="0 0 512 512" id="stock-quotes"><linearGradient id="a" x1="35.703" x2="459.163" y1="528.372" y2="104.912" gradientUnits="userSpaceOnUse"><stop offset="0" stop-color="#0095da"></stop><stop offset=".5" stop-color="#00aeee"></stop><stop offset="1" stop-color="#2bc4f3"></stop></linearGradient><path fill="url(#a)" d="M57.616,274.927H21.611c-9.318,0-16.902,7.577-16.902,16.894v198.568
		c0,9.318,7.584,16.902,16.902,16.902h36.005c9.318,0,16.894-7.584,16.894-16.902V291.821
		C74.51,282.503,66.933,274.927,57.616,274.927z M58.804,490.389c0,0.66-0.537,1.196-1.189,1.196H21.611
		c-0.66,0-1.196-0.537-1.196-1.196V291.821c0-0.652,0.537-1.189,1.196-1.189h36.005c0.652,0,1.189,0.537,1.189,1.189V490.389z
		 M165.807,334.874h-36.005c-9.318,0-16.902,7.584-16.902,16.902v138.614c0,9.318,7.584,16.902,16.902,16.902h36.005
		c9.318,0,16.902-7.584,16.902-16.902V351.776C182.709,342.458,175.125,334.874,165.807,334.874z M167.004,490.389
		c0,0.66-0.537,1.196-1.196,1.196h-36.005c-0.66,0-1.196-0.537-1.196-1.196V351.776c0-0.66,0.537-1.196,1.196-1.196h36.005
		c0.66,0,1.196,0.537,1.196,1.196V490.389z M273.999,274.927h-35.997c-9.318,0-16.902,7.577-16.902,16.894v198.568
		c0,9.318,7.584,16.902,16.902,16.902h35.997c9.318,0,16.902-7.584,16.902-16.902V291.821
		C290.901,282.503,283.316,274.927,273.999,274.927z M275.195,490.389c0,0.66-0.537,1.196-1.196,1.196h-35.997
		c-0.66,0-1.196-0.537-1.196-1.196V291.821c0-0.652,0.537-1.189,1.196-1.189h35.997c0.66,0,1.196,0.537,1.196,1.189V490.389z
		 M382.198,308.363h-36.005c-9.318,0-16.902,7.577-16.902,16.894v165.132c0,9.318,7.584,16.902,16.902,16.902h36.005
		c9.318,0,16.902-7.584,16.902-16.902V325.257C399.1,315.939,391.515,308.363,382.198,308.363z M383.394,490.389
		c0,0.66-0.537,1.196-1.196,1.196h-36.005c-0.66,0-1.196-0.537-1.196-1.196V325.257c0-0.652,0.537-1.189,1.196-1.189h36.005
		c0.66,0,1.196,0.537,1.196,1.189V490.389z M490.389,217.058h-36.005c-9.318,0-16.894,7.577-16.894,16.894v256.437
		c0,9.318,7.577,16.902,16.894,16.902h36.005c9.318,0,16.902-7.584,16.902-16.902V233.952
		C507.291,224.635,499.707,217.058,490.389,217.058z M491.586,490.389c0,0.66-0.537,1.196-1.196,1.196h-36.005
		c-0.652,0-1.189-0.537-1.189-1.196V233.952c0-0.652,0.537-1.189,1.189-1.189h36.005c0.66,0,1.196,0.537,1.196,1.189V490.389z
		 M34.962,218.346c-3.497-2.561-4.249-7.477-1.679-10.974c2.554-3.489,7.462-4.249,10.974-1.679l103.552,76.036l103.544-76.036
		c2.278-1.679,5.268-1.986,7.838-0.851l102.747,45.675l91.947-111.332l-25.865,3.002c-4.318,0.575-8.206-2.584-8.704-6.894
		c-0.498-4.31,2.584-8.206,6.894-8.704l45.292-5.261c0.005,0,0.01,0.002,0.015,0.002c4.829-0.543,8.743,3.601,8.743,7.797
		l-0.008,45.53c0,4.341-3.52,7.853-7.853,7.853c-4.341,0-7.853-3.52-7.853-7.853l0.005-23.718l-94.3,114.171
		c-2.255,2.715-6.035,3.589-9.249,2.178l-104.027-46.243l-104.518,76.749c-2.77,2.047-6.557,2.023-9.295,0L34.962,218.346z
		 M157.878,193.837c52.194,0,94.656-42.424,94.656-94.564S210.072,4.709,157.878,4.709c-52.14,0-94.564,42.424-94.564,94.564
		S105.737,193.837,157.878,193.837z M157.878,20.414c43.536,0,78.95,35.376,78.95,78.858s-35.415,78.858-78.95,78.858
		c-43.482,0-78.858-35.376-78.858-78.858S114.396,20.414,157.878,20.414z M168.652,116.405c0-5.115-4.156-9.279-9.272-9.279h-2.914
		c-13.773,0-24.985-11.204-24.985-24.977c0-11.557,7.934-21.22,18.612-24.058v-5.06c0-4.341,3.512-7.853,7.853-7.853
		c4.341,0,7.853,3.512,7.853,7.853v4.133h10.706c4.341,0,7.853,3.512,7.853,7.853c0,4.341-3.512,7.853-7.853,7.853h-20.039
		c-5.115,0-9.279,4.156-9.279,9.272c0,5.115,4.164,9.279,9.279,9.279c-0.791,0,2.051,0,2.914,0
		c13.773,0,24.977,11.212,24.977,24.985c0,11.541-7.906,21.189-18.559,24.044v5.075c0,4.341-3.512,7.853-7.853,7.853
		c-4.341,0-7.853-3.512-7.853-7.853v-4.133h-10.759c-4.341,0-7.853-3.512-7.853-7.853s3.512-7.853,7.853-7.853h20.046
		C164.496,125.684,168.652,121.52,168.652,116.405z"></path></svg>